<svg width="1595" height="800" viewBox="0 0 1595 800" fill="none" xmlns="http://www.w3.org/2000/svg">
<g filter="url(#filter0_d_17_12)">
<path d="M12 60C12 32.3858 34.3858 10 62 10H1519C1546.61 10 1569 32.3858 1569 60V722C1569 749.614 1546.61 772 1519 772H62C34.3857 772 12 749.614 12 722V60Z" fill="url(#paint0_linear_17_12)"/>
<path d="M12.5 60C12.5 32.6619 34.6619 10.5 62 10.5H1519C1546.34 10.5 1568.5 32.6619 1568.5 60V722C1568.5 749.338 1546.34 771.5 1519 771.5H62C34.6619 771.5 12.5 749.338 12.5 722V60Z" stroke="black"/>
</g>
<defs>
<filter id="filter0_d_17_12" x="0" y="0" width="1595" height="800" filterUnits="userSpaceOnUse" color-interpolation-filters="sRGB">
<feFlood flood-opacity="0" result="BackgroundImageFix"/>
<feColorMatrix in="SourceAlpha" type="matrix" values="0 0 0 0 0 0 0 0 0 0 0 0 0 0 0 0 0 0 127 0" result="hardAlpha"/>
<feOffset dx="7" dy="9"/>
<feGaussianBlur stdDeviation="9.5"/>
<feComposite in2="hardAlpha" operator="out"/>
<feColorMatrix type="matrix" values="0 0 0 0 0 0 0 0 0 0 0 0 0 0 0 0 0 0 0.74 0"/>
<feBlend mode="normal" in2="BackgroundImageFix" result="effect1_dropShadow_17_12"/>
<feBlend mode="normal" in="SourceGraphic" in2="effect1_dropShadow_17_12" result="shape"/>
</filter>
<linearGradient id="paint0_linear_17_12" x1="12" y1="10" x2="12" y2="772" gradientUnits="userSpaceOnUse">
<stop stop-color="#4B6CB7"/>
<stop offset="1" stop-color="#182848"/>
</linearGradient>
</defs>
</svg>
